<?xml version="1.0" encoding="UTF-8"?>
<svg xmlns="http://www.w3.org/2000/svg" xmlns:xlink="http://www.w3.org/1999/xlink" width="4001" height="4001" viewBox="0 0 4001 4001">
<path fill-rule="evenodd" fill="rgb(3.140259%, 15.696716%, 20.384216%)" fill-opacity="1" d="M 1 0 L 4001 0 L 4001 4000 L 1 4000 L 1 0 "/>
<path fill-rule="nonzero" fill="rgb(0%, 80.076599%, 100%)" fill-opacity="1" d="M 2296.398438 2459.058594 L 2001 2754.460938 L 1705.589844 2459.058594 L 1756.210938 2408.449219 L 2001 2653.230469 L 2245.789062 2408.441406 L 2296.398438 2459.058594 "/>
<path fill-rule="nonzero" fill="rgb(90.234375%, 90.234375%, 90.234375%)" fill-opacity="1" d="M 1541.960938 1811.800781 L 1350.761719 2003 L 1705.589844 2357.839844 L 1654.980469 2408.449219 L 1249.53125 2003 L 1491.351562 1761.191406 L 1541.960938 1811.800781 "/>
<path fill-rule="nonzero" fill="rgb(90.234375%, 90.234375%, 90.234375%)" fill-opacity="1" d="M 2510.648438 1761.191406 L 2752.460938 2003 L 2347.011719 2408.449219 L 2296.398438 2357.828125 L 2651.230469 2003 L 2460.03125 1811.800781 L 2510.648438 1761.191406 "/>
<path fill-rule="nonzero" fill="rgb(0%, 80.076599%, 100%)" fill-opacity="1" d="M 2026.308594 1315.589844 L 2460.039062 1709.25 L 2409.421875 1755.179688 L 2326.121094 1679.578125 L 2001 1384.5 L 1592.578125 1755.191406 L 1541.960938 1709.25 L 2001 1292.621094 L 2026.308594 1315.589844 "/>
<path fill-rule="nonzero" fill="rgb(0%, 80.076599%, 100%)" fill-opacity="1" d="M 2542.910156 2003 L 2286.339844 2262.46875 L 2441.679688 2003 L 2301.488281 1770.691406 Z M 2087.671875 2358.648438 L 2086.851562 2357.828125 L 2087.671875 2357.011719 Z M 2087.671875 2358.648438 "/>
<path fill-rule="nonzero" fill="rgb(0%, 80.076599%, 100%)" fill-opacity="1" d="M 1459.089844 2003 L 1715.660156 2262.46875 L 1560.320312 2003 L 1700.511719 1770.691406 Z M 1914.328125 2358.648438 L 1915.148438 2357.828125 L 1914.328125 2357.011719 Z M 1914.328125 2358.648438 "/>
<path fill-rule="nonzero" fill="rgb(90.234375%, 90.234375%, 90.234375%)" fill-opacity="1" d="M 2041 1599.910156 C 2041 1743.109375 2041 1886.410156 2041 2029.53125 C 2041 2172.648438 2041 2315.851562 2041 2458.96875 C 2051.371094 2449.699219 2061.730469 2440.328125 2072.101562 2430.96875 C 2082.46875 2421.609375 2092.839844 2412.238281 2103.210938 2402.960938 C 2104.371094 2401.851562 2105.558594 2400.820312 2106.75 2399.699219 C 2112.550781 2346.949219 2118.308594 2295.230469 2124.191406 2244.980469 C 2129.910156 2196.011719 2135.820312 2148.25 2141.640625 2101.769531 C 2147.460938 2144.210938 2153.179688 2185.378906 2159.089844 2225.140625 C 2164.820312 2263.628906 2170.730469 2300.910156 2176.550781 2336.808594 C 2187.5 2326.941406 2198.480469 2317.058594 2209.429688 2307.179688 C 2220.378906 2297.300781 2231.351562 2287.421875 2242.320312 2277.449219 C 2242.320312 2192.320312 2242.320312 2107.011719 2242.320312 2021.800781 C 2242.320312 1936.578125 2242.320312 1851.269531 2242.320312 1765.960938 C 2231.351562 1756.941406 2220.359375 1747.949219 2209.429688 1738.910156 C 2198.449219 1729.828125 2187.5 1720.78125 2176.550781 1711.761719 C 2176.550781 1794.398438 2176.550781 1877.039062 2176.550781 1959.679688 C 2176.550781 2042.328125 2176.550781 2124.96875 2176.550781 2207.609375 C 2173.75 2174.191406 2170.929688 2140.261719 2168.160156 2105.808594 C 2165.339844 2070.851562 2162.558594 2035.28125 2159.761719 1999.121094 C 2147.679688 1998.769531 2135.601562 1998.429688 2123.519531 1998.078125 C 2120.71875 2038.03125 2117.878906 2078.578125 2115.121094 2119.46875 C 2112.320312 2161.050781 2109.53125 2203.058594 2106.75 2245.671875 C 2106.75 2147.128906 2106.75 2048.511719 2106.75 1949.980469 C 2106.75 1851.441406 2106.75 1752.910156 2106.75 1654.199219 C 2095.78125 1645.089844 2084.800781 1636.070312 2073.851562 1627.050781 C 2062.898438 1618.039062 2051.949219 1609.011719 2041 1599.910156 "/>
<path fill-rule="nonzero" fill="rgb(90.234375%, 90.234375%, 90.234375%)" fill-opacity="1" d="M 1759.679688 2277.449219 C 1759.679688 2192.320312 1759.679688 2107.011719 1759.679688 2021.800781 C 1759.679688 1936.578125 1759.679688 1851.269531 1759.679688 1765.960938 C 1770.050781 1757.371094 1780.441406 1748.808594 1790.78125 1740.28125 C 1801.171875 1731.71875 1811.519531 1723.179688 1821.890625 1714.589844 C 1823.050781 1713.730469 1824.238281 1712.699219 1825.429688 1711.671875 C 1831.230469 1748.269531 1837.148438 1785.800781 1842.871094 1824.898438 C 1848.75 1865.171875 1854.5 1906.679688 1860.320312 1949.550781 C 1866.140625 1903.589844 1872.039062 1856.261719 1877.769531 1807.800781 C 1883.671875 1757.980469 1889.410156 1706.769531 1895.230469 1654.289062 C 1895.230469 1654.289062 1895.230469 1654.199219 1895.230469 1654.109375 C 1906.179688 1645.179688 1917.128906 1636.039062 1928.109375 1626.96875 C 1939.039062 1617.921875 1950.03125 1609.011719 1961 1599.910156 C 1961 1743.109375 1961 1886.410156 1961 2029.53125 C 1961 2172.648438 1961 2315.851562 1961 2458.96875 C 1950.03125 2449.089844 1939.058594 2439.128906 1928.109375 2429.25 C 1917.160156 2419.371094 1906.179688 2409.488281 1895.230469 2399.609375 C 1895.230469 2301.160156 1895.230469 2202.539062 1895.230469 2104.089844 C 1895.230469 2005.558594 1895.230469 1906.941406 1895.230469 1808.398438 C 1892.429688 1850.839844 1889.648438 1892.679688 1886.839844 1934 C 1884.058594 1974.71875 1881.238281 2014.921875 1878.441406 2054.609375 C 1866.359375 2053.410156 1854.28125 2052.03125 1842.199219 2050.828125 C 1839.398438 2014.578125 1836.601562 1978.75 1833.800781 1943.53125 C 1831.050781 1908.828125 1828.210938 1874.71875 1825.429688 1840.960938 C 1825.429688 1923.601562 1825.429688 2006.238281 1825.429688 2088.890625 C 1825.429688 2171.53125 1825.429688 2254.171875 1825.429688 2336.730469 C 1814.460938 2326.761719 1803.480469 2316.878906 1792.53125 2307.011719 C 1781.578125 2297.128906 1770.628906 2287.25 1759.679688 2277.449219 "/>
</svg>
